<svg xmlns="http://www.w3.org/2000/svg" width="1200" height="1200" viewBox="0 0 1200 1200">
  <defs>
    <linearGradient id="rock" x1="0" y1="0" x2="1" y2="1">
      <stop offset="0%" stop-color="#21252d"/>
      <stop offset="100%" stop-color="#585c5b"/>
    </linearGradient>
  </defs>
  <rect width="1200" height="1200" fill="#1f2326"/>
  <path d="M170 1080c0-375 188-650 430-650 241 0 430 275 430 650Z" fill="url(#rock)"/>
  <path d="M320 1080c0-292 120-490 280-490s280 198 280 490Z" fill="#121619"/>
  <circle cx="600" cy="760" r="180" fill="#d5efc0"/>
  <path d="M562 1080V720h76v360Z" fill="#3a2e23"/>
  <path d="M170 1080h860v120H170Z" fill="#4b3a2b"/>
  <path d="M0 1080c182-66 296-88 430-72 134 16 266 40 430 20 164-20 236-18 340 6v166H0Z" fill="#30462f"/>
</svg>
